{"title":"Jeepers Creepers III 2017 1080p BluRay x264 AC3-CHL","magnet":"magnet:?xt=urn:btih:cefef3f54e4ed8e37e5c0759ccd751c09dee8bc9&dn=Jeepers+Creepers+III+2017+1080p+BluRay+x264+AC3-CHL&tr=udp%3A%2F%2Ftracker.leechers-paradise.org%3A6969&tr=udp%3A%2F%2Fzer0day.ch%3A1337&tr=udp%3A%2F%2Fopen.demonii.com%3A1337&tr=udp%3A%2F%2Ftracker.coppersurfer.tk%3A6969&tr=udp%3A%2F%2Fexodus.desync.com%3A6969","uploader":"lyrical1986","categoryP":"video","categoryS":"movies","size":"2063008309","seeders":"89","leechers":"46","description":"Jeepers.Creepers.III.2017.1080p.BluRay.x264.AC3-CHL\r\n\r\nSheriff Dan Tashtego and a team of creeper hunters enlist the help of officer Davis Tubbs to help stop the monster&apos;s eating spree.\r\n <a href=\"\nhttp://www.imdb.com/title/tt1139592/\" rel=\"nofollow\" target=\"_NEW\">\nhttp://www.imdb.com/title/tt1139592/</a>\r\n\r\nFormat : Matroska\r\nFormat version : Version 4 / Version 2\r\nFile size : 1.92 GiB\r\nDuration : 1h 41mn\r\nOverall bit rate : 2 713 Kbps\r\nWriting library : Lavf57.7.2 / Lavf57.7.2\r\n\r\nVideo\r\nID : 1\r\nFormat : AVC\r\nFormat/Info : Advanced Video Codec\r\nFormat profile : <a href=\"/cdn-cgi/l/email-protection\" class=\"__cf_email__\" data-cfemail=\"410c20282f010d75\">[email&#xA0;protected]</a>\r\nFormat settings, CABAC : Yes\r\nFormat settings, ReFrames : 4 frames\r\nCodec ID : V_MPEG4/ISO/AVC\r\nDuration : 1h 41mn\r\nBit rate : 2 500 Kbps\r\nWidth : 1 920 pixels\r\nHeight : 808 pixels\r\nDisplay aspect ratio : 2.40:1\r\nFrame rate mode : Constant\r\nFrame rate : 23.976 (24000/1001) fps\r\nColor space : YUV\r\nChroma subsampling : 4:2:0\r\nBit depth : 8 bits\r\nScan type : Progressive\r\nBits/(Pixel*Frame) : 0.067\r\nStream size : 1.72 GiB (90%)\r\nWriting library : x264 core 148\r\nDefault : Yes\r\nForced : No\r\nColor range : Limited\r\nColor primaries : BT.709\r\nTransfer characteristics : BT.709\r\nMatrix coefficients : BT.709\r\n\r\nAudio\r\nID : 2\r\nFormat : AC-3\r\nFormat/Info : Audio Coding 3\r\nMode extension : CM (complete main)\r\nFormat settings, Endianness : Big\r\nCodec ID : A_AC3\r\nDuration : 1h 41mn\r\nBit rate mode : Constant\r\nBit rate : 224 Kbps\r\nChannel(s) : 6 channels\r\nChannel positions : Front: L C R, Side: L R, LFE\r\nSampling rate : 48.0 KHz\r\nFrame rate : 31.250 fps (1536 spf)\r\nCompression mode : Lossy\r\nDelay relative to video : -5ms\r\nStream size : 162 MiB (8%)\r\nTitle : Surround\r\nLanguage : English\r\nDefault : Yes\r\nForced : No","last_updated":"2017-12-10T12:05:10.750Z","parsed":{"xt":"urn:btih:cefef3f54e4ed8e37e5c0759ccd751c09dee8bc9","dn":"Jeepers Creepers III 2017 1080p BluRay x264 AC3-CHL","tr":["udp://exodus.desync.com:6969","udp://open.demonii.com:1337","udp://tracker.coppersurfer.tk:6969","udp://tracker.leechers-paradise.org:6969","udp://zer0day.ch:1337"],"infoHash":"cefef3f54e4ed8e37e5c0759ccd751c09dee8bc9","infoHashBuffer":{"type":"Buffer","data":[206,254,243,245,78,78,216,227,126,92,7,89,204,215,81,192,157,238,139,201]},"name":"Jeepers Creepers III 2017 1080p BluRay x264 AC3-CHL","announce":["udp://exodus.desync.com:6969","udp://open.demonii.com:1337","udp://tracker.coppersurfer.tk:6969","udp://tracker.leechers-paradise.org:6969","udp://zer0day.ch:1337"],"urlList":[]}}